<?xml version="1.0" standalone="no"?><!DOCTYPE svg PUBLIC "-//W3C//DTD SVG 1.1//EN" "http://www.w3.org/Graphics/SVG/1.1/DTD/svg11.dtd"><svg t="1636611611184" class="icon" viewBox="0 0 1024 1024" version="1.1" xmlns="http://www.w3.org/2000/svg" p-id="6525" xmlns:xlink="http://www.w3.org/1999/xlink" width="200" height="200"><defs><style type="text/css"></style></defs><path d="M682.666667 85.333333a42.666667 42.666667 0 0 1 42.666666 42.666667v170.666667h149.333334l149.333333 149.333333V682.666667a42.666667 42.666667 0 0 1-42.666667 42.666666h-57.045333a149.333333 149.333333 0 1 1-269.909333 0H369.621333a149.333333 149.333333 0 1 1-269.909333 0H42.666667a42.666667 42.666667 0 0 1-42.666667-42.666666V128a42.666667 42.666667 0 0 1 42.666667-42.666667h640zM234.666667 725.333333a64 64 0 1 0 0 128 64 64 0 0 0 0-128z m554.666666 0a64 64 0 1 0 0 128 64 64 0 0 0 0-128zM640 170.666667H85.333333v469.333333h554.666667V170.666667z m199.296 213.333333H725.333333v256h213.333334v-156.629333L839.296 384z" fill="#707070" p-id="6526"></path></svg>