<?xml version="1.0" standalone="no"?><!DOCTYPE svg PUBLIC "-//W3C//DTD SVG 1.1//EN" "http://www.w3.org/Graphics/SVG/1.1/DTD/svg11.dtd"><svg t="1636611902678" class="icon" viewBox="0 0 1024 1024" version="1.1" xmlns="http://www.w3.org/2000/svg" p-id="11909" data-spm-anchor-id="a313x.7781069.0.i4" width="128" height="128" xmlns:xlink="http://www.w3.org/1999/xlink"><defs><style type="text/css"></style></defs><path d="M915.968 950.477H114.79a12.493 12.493 0 0 1-12.39-12.493V578.15a12.493 12.493 0 0 1 12.493-12.492h65.536l13.26-347.853a12.544 12.544 0 0 1 12.493-12.032h82.79a12.544 12.544 0 0 1 12.494 12.032l13.26 347.853h109.876V468.89a12.39 12.39 0 0 1 6.707-11.06 12.544 12.544 0 0 1 12.953 0.82l139.828 97.945V468.89a12.39 12.39 0 0 1 6.707-11.06 12.544 12.544 0 0 1 12.953 0.82l140.237 98.252V468.89a12.493 12.493 0 0 1 19.661-10.24L916.48 565.658a12.493 12.493 0 0 1 12.083 12.492v359.834a12.493 12.493 0 0 1-12.595 12.493z m-788.48-24.986H903.68v-338.38l-134.502-94.209v85.248a12.493 12.493 0 0 1-12.493 12.493h-4.045a12.8 12.8 0 0 1-7.168-2.253L609.28 492.902v85.248a12.493 12.493 0 0 1-12.493 12.493h-3.584a12.8 12.8 0 0 1-7.168-2.253l-136.448-95.488v85.248a12.493 12.493 0 0 1-12.493 12.493h-134.4a12.544 12.544 0 0 1-12.492-12.083L276.94 230.758h-58.829L204.8 578.56a12.544 12.544 0 0 1-12.493 12.032h-65.024z" p-id="11910" fill="#1296db"></path><path d="M458.086 822.272H342.63a12.544 12.544 0 0 1-12.492-12.493V694.323a12.544 12.544 0 0 1 12.492-12.493h115.456a12.493 12.493 0 0 1 12.493 12.493V809.78a12.493 12.493 0 0 1-12.493 12.493z m-102.963-24.986h90.317v-90.47h-90.317z m288.82 24.986H528.537a12.493 12.493 0 0 1-12.493-12.493V694.323a12.493 12.493 0 0 1 12.493-12.493h115.404a12.493 12.493 0 0 1 12.493 12.493V809.78a12.493 12.493 0 0 1-12.493 12.493zM541.03 797.286h90.42v-90.47h-90.42z m288.768 24.986H714.394a12.493 12.493 0 0 1-12.493-12.493V694.323a12.493 12.493 0 0 1 12.493-12.493h115.404a12.493 12.493 0 0 1 12.493 12.493V809.78a12.493 12.493 0 0 1-12.493 12.493zM727.04 797.286h90.42v-90.47h-90.42zM593.562 390.35A53.248 53.248 0 1 1 646.81 337.1a53.35 53.35 0 0 1-53.248 53.248z m0-81.51a28.262 28.262 0 1 0 28.21 28.262 28.314 28.314 0 0 0-28.21-28.263zM425.728 182.937a12.442 12.442 0 0 1-9.318-20.788 236.902 236.902 0 0 1 354.304 0 12.493 12.493 0 1 1-18.688 16.64 211.814 211.814 0 0 0-316.928 0 12.595 12.595 0 0 1-9.37 4.148z" p-id="11911" fill="#1296db" data-spm-anchor-id="a313x.7781069.0.i5" class=""></path><path d="M711.066 226.406a12.595 12.595 0 0 1-9.319-4.147 145.408 145.408 0 0 0-215.757-0.717 12.493 12.493 0 1 1-18.483-16.742 170.445 170.445 0 0 1 252.826 0.82 12.544 12.544 0 0 1-9.267 20.889z" p-id="11912" fill="#1296db"></path><path d="M525.414 270.797a12.34 12.34 0 0 1-8.345-3.175 12.544 12.544 0 0 1-0.922-17.664 104.192 104.192 0 0 1 151.04-3.993 12.493 12.493 0 1 1-17.664 17.664 79.258 79.258 0 0 0-114.841 3.072 12.442 12.442 0 0 1-9.268 4.096z" p-id="11913" fill="#1296db"></path></svg>