<?xml version="1.0" standalone="no"?><!DOCTYPE svg PUBLIC "-//W3C//DTD SVG 1.1//EN" "http://www.w3.org/Graphics/SVG/1.1/DTD/svg11.dtd"><svg t="1636611437005" class="icon" viewBox="0 0 1024 1024" version="1.1" xmlns="http://www.w3.org/2000/svg" p-id="2681" xmlns:xlink="http://www.w3.org/1999/xlink" width="200" height="200"><defs><style type="text/css"></style></defs><path d="M960 896c0-70.4-57.6-128-128-128H576L384 576v-32c0-25.6-6.4-51.2-19.2-76.8l313.6-313.6c6.4-6.4 12.8-19.2 19.2-25.6H800v128h-64c-12.8 0-25.6 6.4-25.6 19.2l-64 128c-6.4 6.4-6.4 19.2 0 25.6l64 128c6.4 12.8 25.6 19.2 44.8 12.8 12.8-6.4 19.2-25.6 12.8-44.8l-57.6-115.2 44.8-89.6h153.6l51.2 96-57.6 115.2c-6.4 12.8 0 32 12.8 44.8H928c12.8 0 25.6-6.4 25.6-19.2l64-128c6.4-6.4 6.4-19.2 0-25.6l-64-128c0-12.8-12.8-19.2-25.6-19.2h-64V96c0-19.2-12.8-32-32-32H697.6c-12.8-38.4-44.8-64-83.2-64-25.6 0-44.8 6.4-64 25.6L185.6 390.4C115.2 403.2 64 467.2 64 544c0 89.6 70.4 160 160 160h32l64 64H192c-70.4 0-128 57.6-128 128v64H0v64h1024v-64h-64v-64zM595.2 70.4C601.6 64 608 64 614.4 64c12.8 0 19.2 12.8 25.6 19.2V96c0 6.4 0 12.8-6.4 12.8L320 416c-12.8-6.4-25.6-19.2-44.8-25.6l320-320zM268.8 627.2C256 633.6 243.2 640 224 640c-12.8 0-32-6.4-44.8-12.8-19.2-6.4-32-19.2-38.4-38.4C134.4 576 128 563.2 128 544c0-44.8 32-83.2 76.8-96H224c38.4 0 70.4 25.6 89.6 57.6v6.4c6.4 12.8 6.4 19.2 6.4 32 0 19.2-6.4 32-12.8 44.8-6.4 19.2-19.2 32-38.4 38.4z m44.8 44.8l38.4-38.4L486.4 768h-76.8l-96-96zM128 960v-64c0-38.4 25.6-64 64-64h640c38.4 0 64 25.6 64 64v64H128z" p-id="2682" fill="#1296db"></path></svg>